<?xml version="1.0" encoding="UTF-8"?>
<!-- Generator: Adobe Illustrator 23.1.0, SVG Export Plug-In . SVG Version: 6.00 Build 0)  -->
<svg version="1.1" id="Calque_1" xmlns="http://www.w3.org/2000/svg" xmlns:xlink="http://www.w3.org/1999/xlink" x="0px" y="0px" viewBox="0 0 500 500" style="enable-background:new 0 0 500 500;" xml:space="preserve">
<style type="text/css">
	.st0{fill:#EDF0F4;}
	.st1{fill:#BE1E2D;}
</style>
<g>
	<polygon class="st0" points="361.2,325.2 354.3,332.1 313.5,372.9 306.6,379.7 297.2,377.2 169.1,342.9 159.7,340.4 157.2,331    122.9,202.9 120.4,193.5 127.2,186.6 168.1,145.8 174.9,138.9 263.3,50.6 193.4,31.9 34.7,190.5 60.8,287.8 0,348.6 32,468.1    151.5,500.1 212.3,439.3 309.6,465.4 468.2,306.7 449.5,236.8  "/>
	<polygon class="st1" points="468,32.1 348.5,0.1 316.9,31.8 427.6,61.4 436.3,63.8 438.7,72.5 468.4,183.2 500,151.6  "/>
	<polygon class="st1" points="153.8,194.8 185.8,314.3 305.3,346.3 349.8,301.8 438.6,212.9 406.6,93.5 287.2,61.5 198.3,150.3  "/>
</g>
</svg>